<?xml version="1.0" standalone="no"?><!DOCTYPE svg PUBLIC "-//W3C//DTD SVG 1.1//EN" "http://www.w3.org/Graphics/SVG/1.1/DTD/svg11.dtd"><svg t="1557736765529" class="icon" style="" viewBox="0 0 1127 1024" version="1.1" xmlns="http://www.w3.org/2000/svg" p-id="4466" xmlns:xlink="http://www.w3.org/1999/xlink" width="220.1171875" height="200"><defs><style type="text/css"></style></defs><path d="M726.904 303.712L439.051 591.566 307.939 460.454l-183.358 183.36 26.616 66.048L307.94 552.134l131.112 131.111 313.484-314.47 53.233 53.233 52.248-222.79-183.359 52.247z" p-id="4467"></path><path d="M545.517 925.752h-288.84c-83.792 0-152.798-69.006-152.798-152.799V211.047c0-83.793 69.006-152.8 152.799-152.8h446.567v69.007H256.678c-46.333 0-83.793 37.46-83.793 83.793v561.906c0 46.333 37.46 83.793 83.793 83.793h288.84v69.006z m332.215 0h-215.89v-69.006h215.89c46.333 0 83.793-37.46 83.793-83.793V352.016h69.006v419.951c0 84.78-69.006 153.785-152.8 153.785z" p-id="4468"></path></svg>