<?xml version="1.0" standalone="no"?><!DOCTYPE svg PUBLIC "-//W3C//DTD SVG 1.1//EN" "http://www.w3.org/Graphics/SVG/1.1/DTD/svg11.dtd"><svg t="1553654517068" class="icon" style="" viewBox="0 0 1024 1024" version="1.1" xmlns="http://www.w3.org/2000/svg" p-id="3418" xmlns:xlink="http://www.w3.org/1999/xlink" width="200" height="200"><defs><style type="text/css"></style></defs><path d="M864 128h-704a128 128 0 0 0-128 128v512a128 128 0 0 0 128 128h704a128 128 0 0 0 128-128V256a128 128 0 0 0-128-128z m64 640a64 64 0 0 1-64 64h-704a64 64 0 0 1-64-64V256a64 64 0 0 1 64-64h704a64 64 0 0 1 64 64v512z" fill="" p-id="3419"></path><path d="M512 512a32 32 0 0 0 0-64H400.32l-1.024-1.088 102.4-102.4a33.472 33.472 0 0 0-47.296-47.296l-102.4 102.4-102.4-102.4a33.472 33.472 0 0 0-47.296 47.296l102.4 102.4L303.68 448H192a32 32 0 0 0 0 64h128v64H192a32 32 0 0 0 0 64h128v96a32 32 0 0 0 64 0V640h128a32 32 0 0 0 0-64H384V512h128zM832 480h-192a32 32 0 0 0 0 64h192a32 32 0 0 0 0-64zM832 608h-192a32 32 0 0 0 0 64h192a32 32 0 0 0 0-64zM832 352h-192a32 32 0 0 0 0 64h192a32 32 0 0 0 0-64z" fill="" p-id="3420"></path></svg>