<?xml version="1.0" standalone="no"?><!DOCTYPE svg PUBLIC "-//W3C//DTD SVG 1.1//EN" "http://www.w3.org/Graphics/SVG/1.1/DTD/svg11.dtd"><svg t="1562577711251" class="icon" viewBox="0 0 1024 1024" version="1.1" xmlns="http://www.w3.org/2000/svg" p-id="9582" xmlns:xlink="http://www.w3.org/1999/xlink" width="200" height="200"><defs><style type="text/css"></style></defs><path d="M470.866 935.629H226.534c-2.682 0-5.36-0.108-8.038-0.292-1.52-0.108-3.036-0.282-4.557-0.45 8.433 0.962 2.944 0.368 1.09 0.05a100.49 100.49 0 0 1-18.554-5.288c-5.135-1.972 5.95 2.662 0.952 0.394a101.745 101.745 0 0 1-11.53-6.252c-2.002-1.239-11.213-8.202-4.076-2.55a102.666 102.666 0 0 1-15.395-15.303c-3.456-4.193 3.84 5.202 0.624 0.814a101.914 101.914 0 0 1-9.64-16.343c-0.779-1.628-2.842-6.697 0.322 0.998-0.563-1.372-1.065-2.764-1.572-4.162-2.212-6.119-3.697-12.488-4.71-18.919 1.48 9.385 0.035-1.27-0.087-3.589a90.362 90.362 0 0 1-0.103-4.71V232.985a106.086 106.086 0 0 1 0.563-10.854c0.553-5.709-1.024 6.707-0.138 1.07 1.009-6.425 2.77-12.708 4.977-18.816 0.614-1.694 2.8-6.727-0.471 0.922a102.01 102.01 0 0 1 10.86-19.02c3.158-4.435-4.02 5.058-0.62 0.813a102.43 102.43 0 0 1 9.912-10.573c1.577-1.484 9.574-7.838 2.396-2.324a101.524 101.524 0 0 1 16.057-9.948c1.305-0.66 2.641-1.265 3.973-1.87-7.49 3.395-2.612 1.132-0.912 0.482 2.765-1.065 5.596-1.935 8.433-2.75 2.882-0.818 5.806-1.443 8.745-2.006 1.817-0.348 7.378-1.05-1.09 0.046a101.038 101.038 0 0 1 13.542-0.737H784.42l1.91 0.01c3.072 0.02 6.138 0.256 9.205 0.558 5.653 0.558-6.656-1.03-1.065-0.138a101.816 101.816 0 0 1 14.49 3.553c2.089 0.66 11.668 4.644 3.267 0.988 5.795 2.52 11.284 5.709 16.501 9.267 1.204 0.814 2.366 1.685 3.523 2.55-6.508-4.859-2.232-1.715-0.855-0.558a100.874 100.874 0 0 1 12.242 12.334c1.147 1.352 4.377 5.668-0.553-0.865a102.774 102.774 0 0 1 11.72 20.193c-3.733-8.381 0.281 1.162 0.977 3.292 1.091 3.323 1.936 6.723 2.678 10.138 0.323 1.48 0.579 2.974 0.84 4.464 0.968 5.622-0.773-6.763-0.138-1.07a102.262 102.262 0 0 1 0.568 11.47v379.811c0 14.612 12.088 26.803 26.583 26.803s26.583-12.19 26.583-26.803V233.503c0-23.486-6.313-46.792-18.243-66.975-15.416-26.102-39.51-44.657-67.389-55.357-18.657-7.158-38.292-7.363-57.866-7.363H244.449c-17.213 0-33.884-0.077-50.867 4.224-55.639 14.1-95.503 67.579-95.503 124.995V856.16c0 37.545 13.788 73.733 41.723 99.241 22.666 20.695 51.317 32.113 81.756 33.73 5.97 0.318 11.996 0.108 17.971 0.108h231.332c14.495 0 26.588-12.19 26.588-26.798s-12.088-26.798-26.583-26.798z m-138.48-574.623h346.198c14.49 0 26.583-12.19 26.583-26.798 0-14.612-12.088-26.803-26.583-26.803H332.385c-14.494 0-26.588 12.19-26.588 26.803 0.005 14.607 12.094 26.798 26.588 26.798z m0 209.408h346.198c14.49 0 26.583-12.196 26.583-26.798 0-14.612-12.088-26.803-26.583-26.803H332.385c-14.494 0-26.588 12.19-26.588 26.803 0.005 14.602 12.094 26.798 26.588 26.798z m0 209.413h138.48c14.495 0 26.588-12.19 26.588-26.803 0-14.612-12.093-26.798-26.588-26.798h-138.48c-14.495 0-26.589 12.19-26.589 26.798 0.005 14.612 12.094 26.803 26.588 26.803z" fill="" p-id="9583"></path><path d="M774.077 691.103c0-3.973-4.556-3.973 0 0-9.103-7.947-18.217-11.925-22.763-11.925-9.098 0-18.207 3.978-18.207 7.952 0 0-4.551 0-4.551 3.973l-136.55 119.28c-9.104 7.957-9.104 19.881 0 31.806 9.102 7.956 27.31 7.956 36.413 0l95.585-91.443V969.42c0 11.93 9.098 19.88 22.753 19.88s22.759-7.95 22.759-19.88V750.746l100.136 87.47c9.099 7.956 27.31 7.956 36.414 0 9.098-7.952 9.098-19.876 0-31.806L774.077 691.103z" fill="" p-id="9584"></path></svg>