<?xml version="1.0" standalone="no"?><!DOCTYPE svg PUBLIC "-//W3C//DTD SVG 1.1//EN" "http://www.w3.org/Graphics/SVG/1.1/DTD/svg11.dtd"><svg t="1562577208072" class="icon" viewBox="0 0 1024 1024" version="1.1" xmlns="http://www.w3.org/2000/svg" p-id="2917" xmlns:xlink="http://www.w3.org/1999/xlink" width="200" height="200"><defs><style type="text/css"></style></defs><path d="M834.56 732.16C883.2 665.6 906.24 591.36 906.24 512s-25.6-156.16-74.24-220.16c-12.8-20.48-40.96-25.6-58.88-10.24-20.48 12.8-25.6 40.96-10.24 61.44C798.72 391.68 819.2 450.56 819.2 509.44s-20.48 120.32-56.32 168.96c-12.8 20.48-10.24 46.08 10.24 61.44 7.68 5.12 15.36 7.68 25.6 7.68 12.8 2.56 28.16-5.12 35.84-15.36zM222.72 512c0-61.44 20.48-120.32 56.32-168.96 12.8-20.48 10.24-46.08-10.24-61.44-20.48-12.8-48.64-10.24-61.44 10.24-48.64 66.56-74.24 140.8-74.24 220.16s25.6 156.16 74.24 220.16c7.68 12.8 23.04 17.92 35.84 17.92 10.24 0 17.92-2.56 25.6-7.68 20.48-12.8 25.6-40.96 10.24-61.44-38.4-51.2-56.32-110.08-56.32-168.96zM875.52 125.44c-15.36-17.92-43.52-20.48-64-5.12-17.92 15.36-20.48 43.52-5.12 61.44 81.92 92.16 128 207.36 128 327.68s-46.08 238.08-128 327.68c-15.36 17.92-12.8 46.08 5.12 61.44 7.68 7.68 20.48 10.24 28.16 10.24 12.8 0 25.6-5.12 33.28-15.36 97.28-107.52 148.48-245.76 148.48-386.56 5.12-138.24-48.64-276.48-145.92-381.44zM89.6 512c0-120.32 46.08-238.08 128-327.68 15.36-17.92 12.8-46.08-5.12-61.44s-46.08-12.8-64 5.12c-94.72 104.96-148.48 243.2-148.48 384s53.76 279.04 148.48 386.56c7.68 10.24 20.48 15.36 33.28 15.36 10.24 0 20.48-5.12 28.16-10.24 17.92-15.36 20.48-43.52 5.12-61.44-79.36-94.72-125.44-209.92-125.44-330.24z m348.16 181.76c-17.92 17.92-15.36 46.08 0 61.44 7.68 7.68 20.48 12.8 33.28 12.8 10.24 0 23.04-5.12 33.28-12.8 12.8-12.8 23.04-28.16 33.28-43.52 99.84-10.24 179.2-92.16 179.2-194.56 0-104.96-89.6-192-199.68-192s-199.68 87.04-199.68 194.56c0 56.32 23.04 107.52 66.56 143.36-5.12 0 20.48 20.48 53.76 30.72z" p-id="2918"></path></svg>