<?xml version="1.0" encoding="utf-8"?>
<!-- Svg Vector Icons : http://www.sfont.cn -->
<!DOCTYPE svg PUBLIC "-//W3C//DTD SVG 1.1//EN" "http://www.w3.org/Graphics/SVG/1.1/DTD/svg11.dtd">
<svg version="1.1" xmlns="http://www.w3.org/2000/svg" xmlns:xlink="http://www.w3.org/1999/xlink" x="0px" y="0px" viewBox="0 0 1000 1000" enable-background="new 0 0 1000 1000" xml:space="preserve">
<metadata> Svg Vector Icons : http://www.sfont.cn </metadata>
<g><g><g><path d="M172.8,343.1c5.7,0,12.2-1.9,19.6-7.2c9.5-6.8,20.3-19.3,32-40.6c36.4-66.1,118.2-71.7,145.1-71.7c5.6,0,8.8,0.2,8.8,0.2s3.2-0.2,8.8-0.2c27,0,108.7,5.7,145.1,71.7c11.8,21.3,22.5,33.8,32,40.6c7.4,5.3,14,7.2,19.6,7.2c14.3,0,22.6-12.1,22.6-12.1s16.5-30.2-16.5-60.5C590,270.5,610.7,7,378.4,7C131.7,7,166.7,270.5,166.7,270.5c-33,30.2-16.5,60.5-16.5,60.5S158.5,343.1,172.8,343.1z"/><path d="M237.8,589.9c16.6,0,30-13.4,30-30v-7c0,0,0,0,0,0v-28.8v-0.4v0c0-16.6-13.4-30-30-30H40c-16.6,0-30,13.4-30,30V560c0,16.6,13.4,30,30,30h20.6L237.8,589.9L237.8,589.9L237.8,589.9z M47.2,541.9c0-11.3,9.1-20.4,20.4-20.4c6,0,11.4,2.7,15.1,6.8c3.2,3.6,5.3,8.3,5.3,13.6c0,11.3-9.1,20.4-20.4,20.4c-2.4,0-4.7-0.5-6.9-1.3C52.8,558.1,47.2,550.7,47.2,541.9z"/><path d="M772.2,557.5L772.2,557.5c-4.3,0-8.5,0.2-12.7,0.4c-4.3,0.2-8.5,0.6-12.7,1.1v-35.3c0-16.6-13.4-30-30-30H519c-16.6,0-30,13.4-30,30v0.4v28.8v7c0,16.6,13.4,30,30,30h139.1c-6.4,3.9-12.5,8.2-18.4,12.7c-5.2,4-10.3,8.3-15.1,12.7H519c-20.3,0-38-11-47.7-27.3c-4.9-8.3-7.8-17.9-7.8-28.2v-35.8v-0.4c0-19.5,10.2-36.7,25.5-46.6v-20.6c32-23.2,56.5-56.2,68.9-94.6C541,353,525.2,335,510,307.6C480,253.3,408.4,249,387.2,249c-4.3,0-6.9,0.2-6.9,0.2l-1.9,0.1l-1.8-0.1c0,0-2.6-0.2-7-0.2c-21.2,0-92.8,4.2-122.8,58.5c-15.1,27.4-31,45.4-47.9,54.3c12.5,38.4,36.9,71.4,68.9,94.6v20.6c15.3,9.9,25.5,27.1,25.5,46.6v0.4V560c0,10.3-2.9,19.9-7.8,28.2c-9.7,16.3-27.4,27.3-47.7,27.3H68.1c12.5,11.4,26.5,20.8,42.1,28.4c20.7,10,2.6,40.8-18,30.8c-11.2-5.4-21.7-11.9-31.7-19.2v28.4c14.7,11.2,30.9,20.2,48.7,26.7c21.5,7.7,12.2,42.2-9.5,34.4c-13.7-5-26.8-11.1-39.2-18.3v144.2c0,21.9,17.8,39.7,39.7,39.7h501.5c39.9,50.2,101.5,82.6,170.5,82.6C892.3,993,990,895.3,990,775.3S892.3,557.5,772.2,557.5z M772.2,957.4c-46.8,0-89.5-17.8-121.8-46.9c-37-33.4-60.3-81.6-60.3-135.2c0-47.3,18.2-90.5,47.9-122.9c2.8-3.1,5.7-6,8.7-8.9c11.5-10.9,24.3-20.4,38.3-28.1c2.4-1.3,4.8-2.6,7.3-3.8c1.3-0.6,2.5-1.2,3.8-1.8c5.9-2.7,11.9-5.1,18.1-7.2c4.9-1.7,9.9-3.1,15-4.3c3.3-0.8,6.6-1.5,10-2.1c7-1.3,14.2-2.2,21.5-2.7c3.8-0.2,7.6-0.4,11.4-0.4c100.4,0,182.1,81.7,182.1,182.1C954.3,875.7,872.7,957.4,772.2,957.4z M696.2,521.5c11.3,0,20.4,9.1,20.4,20.4c0,11.3-9.1,20.4-20.4,20.4c0,0-0.1,0-0.1,0c-11.2,0-20.3-9.1-20.3-20.4c0-4,1.2-7.6,3.1-10.7C682.6,525.4,688.9,521.5,696.2,521.5z"/><polygon points="746.8,649.5 710.8,671.3 696.2,680.1 684.1,687.5 684.1,692.1 684.1,732.1 696.2,724.7 720,710.3 777.3,675.5 870.6,732.1 870.6,687.5 777.3,631 "/><polygon points="696.2,764.4 684.1,771.8 684.1,816.4 696.2,809 777.3,759.8 870.6,816.4 870.6,771.8 777.3,715.2 "/><polygon points="696.2,845.4 684.1,852.8 684.1,897.4 687.9,895.1 777.3,840.8 870.6,897.4 870.6,852.8 777.3,796.2 "/></g></g><g></g><g></g><g></g><g></g><g></g><g></g><g></g><g></g><g></g><g></g><g></g><g></g><g></g><g></g><g></g></g>
</svg>