<?xml version="1.0" standalone="no"?><!DOCTYPE svg PUBLIC "-//W3C//DTD SVG 1.1//EN" "http://www.w3.org/Graphics/SVG/1.1/DTD/svg11.dtd"><svg t="1563955326134" class="icon" viewBox="0 0 1024 1024" version="1.1" xmlns="http://www.w3.org/2000/svg" p-id="3822" xmlns:xlink="http://www.w3.org/1999/xlink" width="200" height="200"><defs><style type="text/css"></style></defs><path d="M925.5424 788.0704l60.928 60.928-36.2496 36.1984-61.1328-61.1328a128 128 0 1 1 36.4544-35.9936zM819.2 358.4H153.6v409.6h512v102.4H51.2V153.6h870.4v409.6h-102.4V358.4zM256 460.8h460.8v51.2H256V460.8z m0 153.6h307.2v51.2H256v-51.2z m563.2 179.2a76.8 76.8 0 1 0 0-153.6 76.8 76.8 0 0 0 0 153.6zM153.6 256v51.2h204.8V256H153.6z" p-id="3823"></path></svg>