<?xml version="1.0" standalone="no"?><!DOCTYPE svg PUBLIC "-//W3C//DTD SVG 1.1//EN" "http://www.w3.org/Graphics/SVG/1.1/DTD/svg11.dtd"><svg t="1553654212670" class="icon" style="" viewBox="0 0 1024 1024" version="1.1" xmlns="http://www.w3.org/2000/svg" p-id="1322" xmlns:xlink="http://www.w3.org/1999/xlink" width="200" height="200"><defs><style type="text/css"></style></defs><path d="M409.32693333 484.63049707H159.49575787a23.13619413 23.13619413 0 0 0-23.33478827 23.33478826c0 13.00790293 10.87301867 23.2851392 23.33478827 23.2851392h249.83117546a23.08654507 23.08654507 0 0 0 23.2851392-23.2851392c0.59578133-12.4617696-10.27723627-23.33478827-23.2851392-23.33478826z m-108.38264213 100.83607253H159.49575787a23.13619413 23.13619413 0 0 0-23.33478827 23.33478827c0 13.00790293 10.87301867 23.2851392 23.33478827 23.2851392h141.44853333a23.08654507 23.08654507 0 0 0 23.2851392-23.2851392 22.78865493 22.78865493 0 0 0-23.2851392-23.33478827z m431.39568427 23.2851392c0-1.6384 0-3.227152-0.54613334-4.9152 0-0.54613333-0.54613333-1.588752-0.54613333-2.13488427 0-0.59578133-0.59578133-1.6384-0.59578133-2.18453333-0.54613333-1.09226667-1.04261867-1.6384-1.04261867-2.73066667-0.54613333-0.54613333-0.54613333-1.09226667-0.54613333-1.6384-1.04261867-1.04261867-1.6384-2.68101867-3.22715094-3.77328533l-81.2745696-80.18230293a23.18584213 23.18584213 0 0 0-33.0658912 0 23.18584213 23.18584213 0 0 0 0 33.0658912l40.6124608 40.6124608h-138.76751573a23.13619413 23.13619413 0 0 0-23.2851392 23.2851392c0 13.057552 10.8233696 23.33478827 23.2851392 23.3347872h138.76751573l-40.6124608 40.66210986a23.13619413 23.13619413 0 0 0 0 33.01624214c9.1849696 9.23461867 24.32775787 9.23461867 33.0658912 0l80.72843627-80.72843627a25.42002453 25.42002453 0 0 0 3.22715093-3.77328533c0.54613333-0.59578133 0.54613333-1.04261867 1.04261867-1.6384 0.54613333-1.04261867 1.04261867-1.588752 1.0426176-2.73066667 0.59578133-0.54613333 0.59578133-1.6384 0.5957824-2.18453333s0.54613333-1.588752 0.54613333-2.13488427c0.59578133 0.049648 0.59578133-1.53910293 0.59578134-3.227152z m-502.88950294 76.955152h-70.500848a23.43408533 23.43408533 0 0 0-23.2851392 23.3347872c0 13.00790293 10.27723627 23.2851392 23.2851392 23.28514027h70.4512a23.08654507 23.08654507 0 0 0 23.2851392-23.28514027c0.59578133-12.51141867-10.27723627-23.33478827-23.2354912-23.3347872z" p-id="1323"></path><path d="M864.5538912 311.8041216l-64.4933824-124.07156373c-15.63927253-30.38487253-55.25876373-54.7622784-89.96305387-54.76227947H314.49832747c-34.15815787 0-73.678352 23.83127253-89.96305494 54.16649707L160.0418912 308.5273216c-14.1001696 26.01580587-24.9235392 69.90506667-24.9235392 99.6941568v18.9657216c0 13.057552 10.32688533 23.33478827 23.2851392 23.33478827 13.00790293 0 23.33478827-10.27723627 23.3347872-23.33478827v-18.9657216c0-1.588752 0.49648533-4.31941867 0.49648533-6.50395093h658.48785494c0.54613333 3.227152 0.54613333 6.503952 0.54613333 9.2346176v404.78409706c0 13.057552-10.32688533 23.33478827-23.33478827 23.33478827H205.569552a23.48373333 23.48373333 0 0 1-23.33478827-23.33478827v-28.69682346a23.08654507 23.08654507 0 0 0-23.2851392-23.33478827 23.13619413 23.13619413 0 0 0-23.2851392 23.38443627v29.1933088c0 39.0237088 31.4274912 70.500848 70.40155094 70.50084906h612.36441173c39.0237088 0 70.4512-32.02327253 70.4512-70.50084906V411.4982784c0.049648-29.7890912-10.22758827-73.678352-24.3277568-99.6941568z m-671.9922432 42.79699307a131.56848533 131.56848533 0 0 1 9.23461867-23.83127254l64.49338133-121.39054506c8.142352-15.14278827 30.88135787-29.24295787 48.20867947-29.24295787h396.1452608c17.3769696 0 40.11597547 14.1001696 48.2583264 29.24295787l64.4933824 124.12121173c3.227152 5.95781867 5.9081696 13.50438827 8.68848426 21.69638827H192.561648v-0.5957824z" p-id="1324"></path></svg>