<?xml version="1.0" encoding="utf-8"?>
<!-- Svg Vector Icons : http://www.sfont.cn -->
<!DOCTYPE svg PUBLIC "-//W3C//DTD SVG 1.1//EN" "http://www.w3.org/Graphics/SVG/1.1/DTD/svg11.dtd">
<svg version="1.1" xmlns="http://www.w3.org/2000/svg" xmlns:xlink="http://www.w3.org/1999/xlink" x="0px" y="0px" viewBox="0 0 1000 1000" enable-background="new 0 0 1000 1000" xml:space="preserve">
<metadata> Svg Vector Icons : http://www.sfont.cn </metadata>
<g><path d="M10,60.3L10,60.3L10,60.3z"/><path d="M958.1,183.9H65c-17.6,0-31.9,14.5-31.9,32.2v691.4c0,17.7,14.3,32.2,31.9,32.2h893.1c17.6,0,31.9-14.4,31.9-32.2V216.1C990,198.3,975.7,183.9,958.1,183.9z M935,216.1L541.9,612.4c-12.5,12.6-32.7,12.6-45.1,0L103.7,216.1H935z M65,232.2c0-2.8,0.9-5.3,2.1-7.5l325.5,328.2C331.5,600.7,141.3,749.5,65,809.1V232.2z M958.1,891.4c0,8.9-7.1,16.1-16,16.1H80.9c-8.8,0-16-7.2-16-16.1v-42.1L415,575.5l81.7,82.4c12.5,12.6,32.7,12.6,45.1,0c0,0,30.2-30.5,74.9-75.5l341.2,266.9V891.4z M958.1,809.1C882.5,750,677.7,589.8,639.3,559.7C739,459.3,888.6,308.4,958.1,238.3h0V809.1z"/></g>
</svg>