<?xml version="1.0" encoding="utf-8"?>
<!-- Svg Vector Icons : http://www.sfont.cn -->
<!DOCTYPE svg PUBLIC "-//W3C//DTD SVG 1.1//EN" "http://www.w3.org/Graphics/SVG/1.1/DTD/svg11.dtd">
<svg version="1.1" xmlns="http://www.w3.org/2000/svg" xmlns:xlink="http://www.w3.org/1999/xlink" x="0px" y="0px" viewBox="0 0 1000 1000" enable-background="new 0 0 1000 1000" xml:space="preserve">
<metadata> Svg Vector Icons : http://www.sfont.cn </metadata>
<g><path d="M508.6,89.4c66.7,69.5,182.7,140.5,332.3,156c-5.4,246.5-14.5,370-45.7,429.2c-51.7,98-145.3,183.5-278.2,254.4c-2.8,1.2-5.4,1.8-8.2,1.8c-3.4,0-7.2-0.8-11.5-2.5c-132.2-70.7-225.3-156-276.8-253.6C189.5,615.4,180.4,492,175,245.8C355.4,229.5,460.4,142.5,508.6,89.4 M506.6,10c-7,0-14.2,4.4-22.3,15.5C425.9,106,300.1,189.1,114.5,189.1c5.7,306.7,14.8,439.4,53.7,513.1c68.4,129.7,190.7,219.5,303.8,279.6c13.2,5.8,25.6,8.2,36.9,8.2c12.7,0,24.2-3,34.4-7.8c113.3-60.1,235.9-149.9,304.5-279.9c38.9-73.7,48-206.5,53.7-513.1c-171.2,0-308.4-85.2-369.9-163.7C523.1,16.5,515,10,506.6,10L506.6,10z"/><path d="M824.7,945.3c-4,0-7.1-1-9.1-3.1c-5.2-5.3-3.6-17.8,3.8-29.8l6.1-10l-155-155.7l-62.8,62.8l-9.4-9.5l37.3-37.4L500.5,633.5L365.4,762.9l37.3,37.3l-9.5,9.5l-62.8-62.8l-155,155.6l6.1,10c7.4,12,9,24.6,3.8,29.8c-2,2-5.1,3.1-9.1,3.1c-9.7,0-21.7-6-31.2-15.6c-15.2-15.3-19.1-34.3-12.4-41c2-2,5-3,8.9-3c6.2,0,13.5,2.5,20.6,7l10.1,6.4l154.9-155.6l-55-55.1l9.5-9.5l29.8,29.8l124.6-137L105.9,255.9L42.8,107.5c-1.5-3.6-2.3-6.3-2.7-8.3c2.9,0.6,7.3,2,13.9,5.4l141,61.1l305.3,335.5l304.6-334.9l140.4-60.8c7.3-3.7,12-5.1,14.8-5.8c-0.4,2-1.2,4.8-2.7,8.3L894,256.8L564.7,572l124.6,137l30-30l9.5,9.5l-55,55.1l154.9,155.6l10.1-6.4c7.1-4.5,14.4-7,20.6-7c3.9,0,6.9,1,8.9,3c6.7,6.7,2.8,25.7-12.4,41C846.4,939.4,834.4,945.3,824.7,945.3z"/><path d="M66.9,126.4L186.1,178L478.3,499l22,24.1l22-24.1l291.4-320.4l119.5-51.8l-51.6,121.3L564.9,551.3l-20.9,20l19.5,21.4l104.4,114.8l10,10.9l-4.2,4.2l-3.2,3.2l-21,21l-4.4,4.4l-10.1-9.7l-113.9-109l-20.5-19.6L480,632.6L366.1,741.6l-10.1,9.7l-4.5-4.5l-3.3-3.3l-20.9-20.9l-4.3-4.3l10-11l104.4-114.8l19.5-21.4l-20.9-20L118.4,247.3L66.9,126.4 M144.7,901c2.6,0.6,5.8,1.9,9.5,4.2l9.1,5.8l5.6,9.2c2.5,4.1,3.7,7.5,4.2,9.9c-4.8-1.1-11.4-4.6-17.6-10.8C148.6,912.2,145.7,905.3,144.7,901 M856.2,901.1c-1,4.3-3.9,11.2-10.8,18.2c-6.1,6.2-12.8,9.7-17.6,10.8c0.5-2.4,1.7-5.8,4.2-9.9l5.6-9.2l9.1-5.8C850.3,903,853.5,901.7,856.2,901.1 M36.9,83.9c-13.7,0-14.8,13.2-7.8,29.4c24.5,57.5,64.4,151.2,64.4,151.2l321.8,307.9L310.9,687.3L281.6,658l-30.4,30.5l55,55.1L170.1,880.2c-9.6-6.1-19.7-9.3-28.6-9.3c-7.7,0-14.5,2.4-19.4,7.4c-13.5,13.6-8,41.4,12.4,61.9c12.9,13,28.5,20,41.7,20c7.7,0,14.7-2.4,19.6-7.5c10.7-10.7,9.3-30.2-1.6-48l136.2-136.8l62.7,62.8l30.4-30.4l-37-37.1L500.5,654l113.9,109l-37.1,37.1l30.4,30.4l62.7-62.8l136.2,136.8c-11,17.8-12.3,37.3-1.6,48c5,5,11.9,7.5,19.6,7.5c13.2,0,28.9-7,41.7-20c20.4-20.6,25.9-48.3,12.4-61.9c-5-5-11.8-7.4-19.4-7.4c-8.9,0-19,3.2-28.6,9.3L694.7,743.5l55-55.1L719.3,658l-29.5,29.5L585.5,572.7l321-307.3c0,0,40-93.9,64.4-151.5c7-16.3,5.9-29.5-7.8-29.5c-5.7,0-13.5,2.2-23.7,7.4C882,116.6,796,153.9,796,153.9L500.2,479.1L203.8,153.3c0,0-85.9-37.2-143.2-62C50.4,86.1,42.6,83.9,36.9,83.9L36.9,83.9z"/></g>
</svg>