<?xml version="1.0" standalone="no"?><!DOCTYPE svg PUBLIC "-//W3C//DTD SVG 1.1//EN" "http://www.w3.org/Graphics/SVG/1.1/DTD/svg11.dtd"><svg t="1573704389808" class="icon" viewBox="0 0 1024 1024" version="1.1" xmlns="http://www.w3.org/2000/svg" p-id="3784" xmlns:xlink="http://www.w3.org/1999/xlink" width="200" height="200"><defs><style type="text/css"></style></defs><path d="M908.16 95.36H704V52.48c0-28.8-23.04-51.84-51.84-51.84H371.84C343.04 0.64 320 23.68 320 52.48v42.24H115.84c-28.8 0-51.84 23.04-51.84 51.84v824.32c0 28.8 23.04 51.84 51.84 51.84h792.32c28.8 0 51.84-23.04 51.84-51.84V147.2c0-28.8-23.04-51.84-51.84-51.84zM384 64.64h256v64H384v-64z m512 894.72H128v-800h195.2c7.68 19.84 26.24 33.28 48.64 33.28h280.32c22.4 0 40.96-14.08 48.64-33.28H896v800z" p-id="3785"></path><path d="M256 487.04c0 17.92 14.08 32 32 32h448c17.92 0 32-14.08 32-32s-14.08-32-32-32H288c-17.92 0-32 14.72-32 32zM736 647.04H288c-17.92 0-32 14.08-32 32s14.08 32 32 32h448c17.92 0 32-14.08 32-32s-14.08-32-32-32z" p-id="3786"></path></svg>