<?xml version="1.0" standalone="no"?><!DOCTYPE svg PUBLIC "-//W3C//DTD SVG 1.1//EN" "http://www.w3.org/Graphics/SVG/1.1/DTD/svg11.dtd"><svg t="1573704599651" class="icon" viewBox="0 0 1024 1024" version="1.1" xmlns="http://www.w3.org/2000/svg" p-id="6104" xmlns:xlink="http://www.w3.org/1999/xlink" width="200" height="200"><defs><style type="text/css"></style></defs><path d="M821 928.4H192.7c-17.7 0-32-14.3-32-32v-768c0-17.7 14.3-32 32-32H821c17.7 0 32 14.3 32 32v768c0 17.7-14.3 32-32 32z m-32-64v-704H224.7v704H789zM332.3 369.9c-17.7 0-32-14.3-32-32s14.3-32 32-32h349.1c17.7 0 32 14.3 32 32s-14.3 32-32 32H332.3z m0 174.5c-17.7 0-32-14.3-32-32s14.3-32 32-32h349.1c17.7 0 32 14.3 32 32s-14.3 32-32 32H332.3z m0 174.6c-17.7 0-32-14.3-32-32s14.3-32 32-32h139.6c17.7 0 32 14.3 32 32s-14.3 32-32 32H332.3z" p-id="6105"></path></svg>