<?xml version="1.0" standalone="no"?><!DOCTYPE svg PUBLIC "-//W3C//DTD SVG 1.1//EN" "http://www.w3.org/Graphics/SVG/1.1/DTD/svg11.dtd"><svg t="1573704540076" class="icon" viewBox="0 0 1024 1024" version="1.1" xmlns="http://www.w3.org/2000/svg" p-id="5334" xmlns:xlink="http://www.w3.org/1999/xlink" width="200" height="200"><defs><style type="text/css"></style></defs><path d="M1004.6976 156.34432l-103.61856 103.41376-138.15808-137.88672 103.61856-103.41376c19.072-19.04128 50.00192-19.04128 69.07392 0l69.07904 68.9408a48.68096 48.68096 0 0 1 0.00512 68.94592z m-725.6064 448.1024l138.17344 137.91232-184.16128 45.89568 45.98784-183.808z m587.45344-310.2208l-414.47936 413.65504-138.15296-137.88672 414.46912-413.65504 138.1632 137.88672zM118.62528 152.9088v752.46592h752.46592V362.50112l98.14528-98.1504v690.10432c0 27.10016-21.97504 49.07008-49.07008 49.07008H69.5552C42.45504 1003.52 20.48 981.55008 20.48 954.45504V103.82848c0-27.09504 21.97504-49.07008 49.0752-49.07008h692.87424l-98.14528 98.14528H118.62528z" p-id="5335"></path></svg>