<?xml version="1.0" standalone="no"?><!DOCTYPE svg PUBLIC "-//W3C//DTD SVG 1.1//EN" "http://www.w3.org/Graphics/SVG/1.1/DTD/svg11.dtd"><svg t="1574321698767" class="icon" viewBox="0 0 1024 1024" version="1.1" xmlns="http://www.w3.org/2000/svg" p-id="12595" xmlns:xlink="http://www.w3.org/1999/xlink" width="200" height="200"><defs><style type="text/css"></style></defs><path d="M988.063084 514.712785c0 262.823917-213.07029 475.885478-475.904977 475.885478-262.83571 0-475.904977-213.06156-475.904977-475.885478 0-262.823917 213.069267-475.885478 475.904977-475.885478C774.992794 38.82833 988.063084 251.888867 988.063084 514.712785zM510.788867 93.983511c-234.03767 0-423.763343 189.716876-423.763343 423.74598 0 234.028081 189.725673 423.74598 423.763343 423.74598s423.763343-189.716876 423.763343-423.74598C934.55221 283.700387 744.826537 93.983511 510.788867 93.983511zM644.555818 562.840922l-49.468648 0L595.087169 315.00844l-56.713953 0L367.232569 569.836243l0 31.728632 180.385574 0 0 100.432387 47.47005 0 0-100.432387 49.468648 0L644.556841 562.840922zM417.700005 562.840922l115.176808-172.133406c7.495002-13.491269 12.406049-23.397896 14.740306-29.730115l0.999811 0c-0.667223 14.989389-0.999811 28.230971-0.999811 39.7227l0 162.139797L417.700005 562.839899z" p-id="12596"></path></svg>