<?xml version="1.0" encoding="utf-8"?>
<!-- Svg Vector Icons : http://www.sfont.cn -->
<!DOCTYPE svg PUBLIC "-//W3C//DTD SVG 1.1//EN" "http://www.w3.org/Graphics/SVG/1.1/DTD/svg11.dtd">
<svg version="1.1" xmlns="http://www.w3.org/2000/svg" xmlns:xlink="http://www.w3.org/1999/xlink" x="0px" y="0px" viewBox="0 0 1000 1000" enable-background="new 0 0 1000 1000" xml:space="preserve">
<metadata> Svg Vector Icons : http://www.sfont.cn </metadata>
<g><g transform="translate(0.000000,512.000000) scale(0.100000,-0.100000)"><path d="M4266.4,4437.9c-1444.6-326.1-2664.6-606.2-2708.8-623.5c-120.9-46-245.6-168.8-312.7-303.1c-103.6-212.9-107.4-191.8,161.1-1385.1c132.4-590.9,366.4-1634.5,519.9-2319.3c157.3-707.9,289.7-1260.4,306.9-1277.7c23-26.8,28.8-232.1,32.6-1440.7l5.8-1408.1l48-95.9c59.5-122.8,205.3-268.6,322.3-322.3l90.2-42.2h2810.5h2810.4l107.4,53.7c126.6,61.4,253.2,189.9,310.8,316.5l42.2,90.2l5.8,2131.3c3.8,2054.6,3.8,2133.2-30.7,2175.5c-61.4,74.8-126.6,57.5-358.8-97.8c-753.9-506.5-1811-801.9-3491.5-974.6c-424-44.1-1670.9-155.4-1717-153.5c-15.3,0,92.1,38.4,239.8,86.3C5398.3-528.8,5895.2-346.6,6581.9-3.2c439.3,220.6,721.3,391.4,1060.9,650.3c193.7,147.7,587,527.6,631.2,610c32.6,63.3,30.7,69.1-324.2,1655.6c-195.7,876.7-368.3,1636.4-383.7,1692c-38.4,130.4-186.1,293.5-328,360.7C7023.2,5067.1,7167.1,5092.1,4266.4,4437.9z M7147.9,4731.4c136.2-63.3,130.4-48,516-1768.8l356.8-1599.9l-94-94l-94-94l-61.4,274.3c-318.5,1452.2-598.5,2670.4-615.8,2687.7c-24.9,25-5348.5-1164.5-5390.7-1206.7c-25-23,30.7-289.7,416.3-2016.2c245.6-1095.4,445.1-2006.6,445.1-2023.9c0-21.1-32.6-42.2-97.8-63.3c-53.7-17.3-99.8-28.8-101.7-26.8c-17.3,23-989.9,4431.5-989.9,4487.1c0,111.3,103.6,249.4,211,280.1c220.6,61.4,5285.2,1193.2,5348.5,1195.2C7042.4,4762.1,7111.4,4750.6,7147.9,4731.4z M7117.2,3774.1c32.6-149.6,42.2-224.5,28.8-230.2c-11.5-3.8-521.8-120.8-1133.8-257.1c-612-138.1-1124.2-260.9-1137.6-274.3c-26.9-28.8-13.4-82.5,24.9-97.8c13.4-3.8,533.3,105.5,1154.9,245.5c978.4,220.6,1129.9,249.4,1143.4,224.5c7.7-17.3,128.5-546.7,270.5-1177.9l255.1-1147.2l-145.8-120.9c-556.3-462.3-1356.3-869.1-2515-1281.5c-283.9-99.7-2073.8-684.9-2265.6-738.6c-21.1-5.8-34.5,5.8-42.2,36.5c-151.6,652.3-861.4,3873.3-853.7,3880.9c11.5,13.4,5072.3,1154.9,5127.9,1158.7C7063.5,3996.7,7073.1,3969.8,7117.2,3774.1z M8509.9-4346.4c-30.7-59.5-69.1-99.7-126.6-130.4l-84.4-44.1H5546c-2747.2,0-2754.8,0-2835.4,40.3c-49.9,23-101.7,69.1-126.6,109.4l-44.1,71l-5.8,1354.4l-5.8,1354.4l61.4,13.4c32.6,5.8,84.4,11.5,115.1,11.5h55.6v-830.7c0-619.6,5.8-836.4,23-853.7c32.6-32.6,5484.7-32.6,5517.3,0c17.3,17.3,23,351.1,23,1388.9v1364l111.3,69.1l109.4,67.1l5.8-1949.1l3.8-1951L8509.9-4346.4z M8189.6-1854.4v-1285.3H5542.2H2894.8v335.7v335.7l1222,3.8c1174.1,5.8,1223.9,7.7,1229.7,42.2c3.8,19.2-1.9,44.1-11.5,53.7c-13.4,13.4-437.4,21.1-1229.7,21.1H2894.8v399v397.1l72.9,11.5c38.4,5.8,322.3,32.6,627.3,59.5c1745.7,151.6,2373.1,232.1,3100.1,395.2C7201.6-972,7807.8-766.7,8103.2-611.3c42.2,23,78.6,40.3,82.5,42.2C8187.7-569.1,8189.6-1146.5,8189.6-1854.4z"/><path d="M5411.7-3471.6c-299.3-113.2-364.5-479.6-118.9-688.7c201.4-174.6,487.3-107.4,617.7,145.8c82.5,163.1,13.4,391.3-155.4,502.6C5666.9-3454.4,5507.6-3435.2,5411.7-3471.6z M5666.9-3607.9c101.7-42.2,147.7-132.4,138.1-266.7c-5.8-88.3-17.3-120.8-61.4-166.9c-30.7-32.6-88.2-67.1-128.5-78.6c-97.8-25-203.3,3.8-274.3,78.6c-74.8,78.7-90.2,245.6-28.8,341.5C5379.1-3590.6,5532.6-3552.2,5666.9-3607.9z"/><path d="M5858.7-2351.3c-168.8-11.5-172.7-13.4-172.7-59.5v-48h316.5c314.6,0,316.5,0,322.3,44.1c3.8,23-5.8,46.1-19.2,49.9C6253.9-2347.5,6025.6-2341.7,5858.7-2351.3z"/></g></g>
</svg>