<?xml version="1.0" standalone="no"?><!DOCTYPE svg PUBLIC "-//W3C//DTD SVG 1.1//EN" "http://www.w3.org/Graphics/SVG/1.1/DTD/svg11.dtd"><svg t="1565231749896" class="icon" viewBox="0 0 1024 1024" version="1.1" xmlns="http://www.w3.org/2000/svg" p-id="1624" xmlns:xlink="http://www.w3.org/1999/xlink" width="200" height="200"><defs><style type="text/css"></style></defs><path d="M448.574061 511.937939c138.457212 0 250.600727-114.65697 250.600727-255.937939 0-141.436121-112.205576-256-250.600727-256C310.30303 0 198.035394 114.563879 198.035394 256c0 141.28097 112.267636 255.937939 250.538667 255.937939z m276.54206 129.458425a317.129697 317.129697 0 0 0-161.698909-44.094061h-208.771879C175.879758 597.302303 31.030303 745.316848 31.030303 927.868121v21.348849C31.030303 1023.875879 175.879758 1024 354.645333 1024h208.771879c49.679515 0 96.783515-0.217212 138.860606-2.07903-62.184727-38.415515-103.548121-106.52703-103.548121-184.102788 0-86.729697 51.665455-161.605818 126.386424-196.421818zM819.510303 1008.484848c95.790545 0 173.459394-76.396606 173.459394-170.666666s-77.668848-170.666667-173.459394-170.666667c-95.821576 0-173.459394 76.396606-173.459394 170.666667s77.637818 170.666667 173.459394 170.666666z m-132.189091-192.57406l267.170909-1.117091v46.390303l-266.705454-0.186182-0.465455-45.08703z" p-id="1625"></path></svg>