<?xml version="1.0" encoding="utf-8"?>
<!-- Svg Vector Icons : http://www.sfont.cn -->
<!DOCTYPE svg PUBLIC "-//W3C//DTD SVG 1.1//EN" "http://www.w3.org/Graphics/SVG/1.1/DTD/svg11.dtd">
<svg version="1.1" xmlns="http://www.w3.org/2000/svg" xmlns:xlink="http://www.w3.org/1999/xlink" x="0px" y="0px" viewBox="0 0 1000 1000" enable-background="new 0 0 1000 1000" xml:space="preserve">
<metadata> Svg Vector Icons : http://www.sfont.cn </metadata>
<g><path d="M719.6,655.3l-91.3,91.2c-7.1,7.1-7.1,18.7,0,25.8l91.3,91.2c7.1,7.1,18.6,7.1,25.8,0c7.1-7.1,7.1-18.6,0-25.8l-60.1-60.1h174.8c10.1,0,18.3-8.1,18.3-18.2c0-10.1-8.1-18.2-18.3-18.2H685.3l60.1-60c3.5-3.6,5.3-8.2,5.3-12.9s-1.8-9.3-5.3-12.9C738.2,648.2,726.6,648.2,719.6,655.3L719.6,655.3z"/><path d="M990,759.4c0,132-107.3,239.3-239.3,239.3c-131.9,0-239.3-107.3-239.3-239.3c0-131.9,107.3-239.3,239.3-239.3C882.7,520.2,990,627.5,990,759.4z M546.2,759.4c0,112.8,91.8,204.5,204.5,204.5c112.8,0,204.5-91.8,204.5-204.5c0-112.7-91.8-204.5-204.5-204.5C638,554.9,546.2,646.7,546.2,759.4z"/><path d="M760.2,436.1c0,18.6-15.7,34.8-34.8,34.8H213.6c-19.1,0-34.8-16.2-34.8-34.8c0-18.6,15.7-34.8,34.8-34.8h511.9C744.6,401.3,760.2,417.5,760.2,436.1z"/><path d="M760.2,296.9c0,18.6-15.7,34.8-34.8,34.8H213.6c-19.1,0-34.8-16.2-34.8-34.8c0-18.6,15.7-34.8,34.8-34.8h511.9C744.6,262.2,760.2,278.4,760.2,296.9z"/><path d="M105.4,853.4c-15.5,0-25.8-21-25.8-36.6v-658c9.8,0,10.3-1,25.8-1h48.8c27-0.6,30.3-29.9,30.3-29.9c0-15.5-1.6-38-30.3-39.7H40.7c-15.5,0-16.6-0.5-30.7-0.5v793c0,15.5,15.2,42.2,30.7,42.2h466.5c-11.5,0-20.8-34.8-27.3-69.6H105.4z"/><path d="M288.2,140.4V36.1c0-17.4-17.4-34.8-34.8-34.8s-34.8,17.4-34.8,34.8v104.3c0,17.4,17.4,38,34.8,38S288.2,157.8,288.2,140.4z"/><path d="M636,140.4V36.1c0-17.4-17.4-34.8-34.8-34.8c-17.4,0-34.8,17.4-34.8,34.8v104.3c0,17.4,17.4,38,34.8,38C618.7,178.5,636,157.8,636,140.4z"/><path d="M531.7,125.2c0-18.5-1.1-37-28.3-37H386.1c-34.3,0-28.3,36.4-28.3,36.4c0,18.4,12.7,33.1,28.3,33.1h117.3C531.1,157.8,531.7,125.2,531.7,125.2z"/><path d="M914.3,87.8c-16.3,0.5-8.3,0.5-23.9,0.5h-170c-7.7,0-29.7,5.7-29.7,33.6c0,28.9,21.7,36,29.7,36h107.8c15.5,0,28.3-1.1,28.3,14.4l-2.4,327.8c22.1,8.1,60.2,11.6,60.2,24.6V87.8z"/><path d="M599,540.4H213.6c-19.2,0-34.8,16.2-34.8,34.8c0,18.6,15.6,34.8,34.8,34.8h310.6C544.6,575.2,569.9,540.4,599,540.4z"/></g>
</svg>