<?xml version="1.0" standalone="no"?><!DOCTYPE svg PUBLIC "-//W3C//DTD SVG 1.1//EN" "http://www.w3.org/Graphics/SVG/1.1/DTD/svg11.dtd"><svg t="1551083759651" class="icon" style="" viewBox="0 0 1298 1024" version="1.1" xmlns="http://www.w3.org/2000/svg" p-id="1823" xmlns:xlink="http://www.w3.org/1999/xlink" width="253.515625" height="200"><defs><style type="text/css"></style></defs><path d="M1116.303338 106.479619c34.338102 0 62.375635 28.037533 62.375635 62.375635l0 686.13198c0 34.338102-28.037533 62.375635-62.375635 62.375635l-935.634518 0c-34.338102 0-62.375635-28.037533-62.375635-62.375635L118.293186 168.855253c0-34.338102 28.037533-62.375635 62.375635-62.375635L1116.303338 106.479619M1116.303338 44.261498l-935.634518 0c-68.676204 0-124.751269 56.075065-124.751269 124.751269l0 686.13198c0 68.676204 56.075065 124.751269 124.751269 124.751269l935.634518 0c68.676204 0 124.751269-56.075065 124.751269-124.751269L1241.054607 168.855253C1241.054607 100.336564 1184.979542 44.261498 1116.303338 44.261498L1116.303338 44.261498z" p-id="1824"></path><path d="M698.103061 730.235964c-26.777419-93.248423-100.809106-164.28734-191.222273-190.119674 44.891555-26.304876 74.976773-75.134287 74.976773-130.894324 0-83.79757-67.888633-151.686202-151.686202-151.686202s-151.686202 67.888633-151.686202 151.686202c0 56.075065 30.400246 105.06199 75.764344 131.366867-89.78311 26.147362-163.184741 97.028765-189.804645 189.804645-4.725427 16.696508 4.882941 34.023073 21.579449 38.906014 2.99277 0.787571 5.828026 1.260114 8.663283 1.260114 13.703738 0 26.304876-8.978311 30.242732-22.682049 26.304876-91.515767 111.205045-155.466544 206.501154-155.466544 95.296108 0 180.196277 63.950777 206.501154 155.309029 4.725427 16.696508 22.051992 26.304876 38.906014 21.579449C693.377634 764.416551 702.986002 746.932472 698.103061 730.235964zM430.171358 320.226427c48.986925 0 88.838025 39.8511 88.838025 88.838025 0 48.986925-39.8511 88.838025-88.838025 88.838025-48.986925 0-88.838025-39.8511-88.838025-88.838025C341.333333 360.077527 381.184433 320.226427 430.171358 320.226427z" p-id="1825"></path><path d="M925.396093 281.477926 1082.280265 432.061529 768.354407 432.061529Z" p-id="1826"></path><path d="M863.020458 449.703123l124.751269 0 0 124.751269-124.751269 0 0-124.751269Z" p-id="1827"></path><path d="M863.020458 636.830026l124.751269 0 0 31.187817-124.751269 0 0-31.187817Z" p-id="1828"></path><path d="M863.020458 730.393478l124.751269 0 0 31.187817-124.751269 0 0-31.187817Z" p-id="1829"></path></svg>