<?xml version="1.0" encoding="utf-8"?>
<!-- Svg Vector Icons : http://www.sfont.cn -->
<!DOCTYPE svg PUBLIC "-//W3C//DTD SVG 1.1//EN" "http://www.w3.org/Graphics/SVG/1.1/DTD/svg11.dtd">
<svg version="1.1" xmlns="http://www.w3.org/2000/svg" xmlns:xlink="http://www.w3.org/1999/xlink" x="0px" y="0px" viewBox="0 0 1000 1000" enable-background="new 0 0 1000 1000" xml:space="preserve">
<metadata> Svg Vector Icons : http://www.sfont.cn </metadata>
<g><g transform="translate(0.000000,503.000000) scale(0.100000,-0.100000)"><path d="M4611.3,4811.5c-145.5-160.9-118.7-484.5,53.6-645.3l67-63.2l-369.6-490.2c-245.1-325.5-377.2-488.3-396.4-482.6c-17.2,3.8-264.3,162.8-551.5,352.3l-520.9,348.5l57.4,88.1c166.6,262.3,74.7,593.6-201.1,718.1c-103.4,47.9-298.7,47.9-402.1,0c-340.8-153.2-383-635.8-76.6-840.6l95.7-65.1l9.6-1110.6l9.6-1110.6l53.6-46l53.6-46h2183h2183l46,47.9c65.1,63.2,65.1,166.6,0,229.8l-46,47.9h-2070H2721.3v900c0,496,3.8,900,9.6,900c5.7,0,281.5-180,610.9-402.1c331.3-220.2,624.3-406,649.2-411.7c26.8-7.7,68.9-1.9,95.7,13.4c26.8,13.4,239.4,279.6,473,589.8c233.6,310.2,430.9,564.9,440.4,564.9s206.8-254.7,440.4-564.9c233.6-310.2,446.2-576.4,473-589.8c26.8-15.3,67-23,90-19.2c21.1,5.7,314,191.5,647.2,413.6c335.1,224,612.8,406,618.5,406c3.8,0,11.5-457.7,13.4-1016.8l5.7-1016.8l53.6-46c69-59.4,149.4-59.4,218.3,0l53.6,46l9.6,1110.6l9.6,1110.6l95.8,65.1c306.4,204.9,262.3,687.5-76.6,840.6c-103.4,47.9-298.7,47.9-402.1,0c-273.8-122.6-365.7-450-203-712.4l59.4-95.7l-536.2-354.3c-293-195.3-541.9-352.3-553.4-348.5c-9.6,1.9-181.9,224-383,492.1L5270,4103l65.1,63.2c137.9,128.3,189.6,365.7,116.8,536.2c-63.2,147.5-51.7,143.6-451.9,143.6C4680.2,4846,4638.1,4842.2,4611.3,4811.5z M5109.1,4631.5c47.9-44,59.4-141.7,24.9-206.8c-53.6-99.6-233.6-80.4-279.6,30.6C4789.4,4612.4,4984.7,4748.3,5109.1,4631.5z M2658.1,4306c124.5-134-7.7-325.5-176.2-256.6c-153.2,65.1-101.5,298.7,67,298.7C2596.8,4348.1,2631.3,4334.7,2658.1,4306z M7560.2,4306c120.6-130.2-1.9-319.8-166.6-260.4c-67,23-122.6,122.6-101.5,181.9c24.9,72.8,88.1,120.6,158.9,120.6C7499,4348.1,7533.4,4334.7,7560.2,4306z"/><path d="M2466.6,1071.7c-51.7-30.6-90-136-90-243.2c0-88.1-3.8-97.7-57.4-118.7c-76.6-32.6-199.2-168.5-231.7-260.4c-42.1-116.8-36.4-566.8,7.7-681.7c40.2-103.4,189.6-248.9,289.2-283.4c55.5-17.2,78.5-49.8,208.7-306.4c95.7-183.8,147.5-308.3,147.5-348.5c0-34.5,21.1-164.7,47.9-287.2c199.1-961.3,702.8-1623.8,1436.2-1890c532.3-191.5,1210.2-170.4,1734.9,53.6c704.7,304.4,1145.1,986.2,1292.5,2008.7c30.7,208.7,38.3,231.7,174.3,492.2c124.5,241.3,147.5,275.7,197.2,287.2c86.2,19.1,241.3,168.5,281.5,273.8c26.8,70.9,34.5,145.5,34.5,358.1c0,254.7-1.9,273.8-53.6,377.2c-51.7,105.3-178.1,226-237.5,226c-17.2,0-24.9,30.6-24.9,101.5c0,185.8-97.7,294.9-224.1,250.9c-93.8-30.6-122.5-122.6-116.8-348.5c5.7-191.5,7.6-201.1,59.3-245.1c28.7-24.9,74.7-46,99.6-46c145.5,0,191.5-95.7,178.1-377.2c-5.7-153.2-13.4-183.8-53.6-225.9c-24.9-26.8-65.1-47.9-88.1-47.9c-109.2,0-137.9-36.4-325.5-394.5c-201.1-386.8-210.6-396.4-486.4-522.8c-122.6-53.6-540-193.4-584-193.4c-11.5,0-59.4,74.7-103.4,164.7C5833-862.4,5607-667,5316-580.9c-157,46-474.9,46-631.9,0c-293-86.2-526.6-291.1-664.5-578.3c-42.1-88.1-88.1-160.8-101.5-160.8c-44,0-459.6,137.9-584,193.4c-275.7,126.4-285.3,135.9-482.6,518.9c-183.8,354.3-218.3,398.3-327.4,398.3c-24.9,0-65.1,23-91.9,49.8c-44,46-46,61.3-46,279.6c0,227.9,0,229.8,53.6,275.7c30.6,24.9,78.5,46,109.2,46s78.5,21.1,107.2,44c47.9,42.1,53.6,59.4,61.3,210.6c3.8,90,1.9,195.3-3.8,235.5C2688.7,1062.1,2566.1,1129.1,2466.6,1071.7z M5134-879.6c388.7-63.2,628.1-381.1,681.7-907.7c9.6-103.4,23-143.6,57.4-178.1c57.5-57.5,143.6-57.5,212.5,1.9c49.8,44,53.6,55.5,51.7,181.9l-3.8,136l80.4,19.2c155.1,40.2,444.2,139.8,564.9,193.4l120.6,55.5l-13.4-90c-17.2-124.5-95.7-388.7-164.7-559.1c-122.6-306.4-360-626.2-589.8-794.7c-333.2-245.1-865.5-371.5-1338.5-319.8c-654.9,74.7-1141.3,427-1449.6,1053.2c-116.8,235.5-262.3,691.3-220.2,691.3c7.7,0,61.3-21.1,116.8-46c107.2-46,406-147.4,549.6-183.8l80.4-21.1l-11.5-122.5c-11.5-118.7-11.5-124.5,46-180c72.8-72.8,158.9-78.5,222.1-15.3c34.5,34.5,47.9,74.7,57.5,178.1c51.7,515.1,293,842.6,666.4,905.8C4992.3-858.5,4994.3-858.5,5134-879.6z"/><path d="M4777.9-1203.2c-103.4-44.1-132.1-176.2-59.4-262.4c44-51.7,46-51.7,283.4-47.9c227.9,1.9,239.4,3.8,281.5,51.7c55.5,63.2,53.6,145.5-3.8,212.5c-44.1,51.7-53.6,53.6-254.7,57.5C4911.9-1187.9,4798.9-1193.6,4777.9-1203.2z"/><path d="M3583,711.7c-70.9-68.9-72.8-134-7.7-210.6c44-53.6,59.4-59.4,162.8-59.4c103.4,0,113-3.8,124.5-46c15.3-61.3,63.2-103.4,134-118.7c46-7.7,70.8,0,118.7,40.2c34.5,28.7,61.3,67,61.3,88.1c0,32.5,15.3,36.4,114.9,36.4c97.7,0,124.5,7.7,162.8,47.9c59.4,57.4,63.2,158.9,11.5,222.1c-36.4,46-42.1,46-430.9,51.7l-394.5,5.8L3583,711.7z"/><path d="M5580.2,748.1c-91.9-36.4-111.1-181.9-34.5-258.5c38.3-40.2,65.1-47.9,162.8-47.9c97.7,0,114.9-5.7,114.9-34.5c0-46,67-114.9,124.5-130.2c65.1-15.3,149.4,30.6,180,103.4c26.8,59.4,32.5,61.3,137.9,61.3c99.6,0,114.9,5.7,159,59.4c65.1,76.6,63.2,141.7-5.8,210.6l-55.5,55.5l-371.5-1.9C5788.9,765.3,5603.2,757.7,5580.2,748.1z"/><path d="M2443.6-2853.8c-427-44.1-957.5-168.5-1202.6-285.3c-91.9-42.1-130.2-72.8-147.5-114.9c-38.3-91.9-9.6-143.6,145.5-273.8c635.7-522.7,1424.7-915.3,2278.7-1133.6c381.1-95.8,643.4-136,716.2-105.3c30.6,13.4,57.4,30.6,57.4,38.3c0,9.6,67,86.2,147.5,172.3c153.2,164.7,319.8,293,469.2,365.7c78.5,38.3,95.7,40.2,149.4,17.2c174.3-72.8,520.9-360,614.7-509.4c61.3-101.5,120.6-113,356.2-74.7c974.7,158.9,2006.8,626.2,2746,1240.8c270,224.1,183.8,344.7-363.8,499.8c-396.4,114.9-888.5,183.8-1298.3,183.8c-206.8,0-220.2-1.9-264.3-47.9c-65.1-63.2-63.2-151.3,5.7-218.3c51.7-51.7,55.5-53.6,367.7-65.1c316-13.4,576.4-44,834.9-97.7c197.2-42.1,371.5-91.9,371.5-107.2c0-21.1-375.3-271.9-603.2-404c-490.2-281.5-1170-532.4-1729.2-639.6l-176.2-34.5l-187.7,180c-101.5,99.6-235.5,212.5-294.9,252.7c-149.4,97.7-377.2,204.9-438.5,204.9c-65.1,0-358.1-147.5-496-247c-57.4-44.1-176.2-149.4-262.3-235.5l-157-155.1l-168.5,32.6c-574.5,111-1244.7,358.1-1738.7,643.4c-237.4,134-603.2,379.1-603.2,400.2c0,17.2,170.4,67,371.5,109.1c258.5,53.6,518.9,84.3,834.9,97.7c312.1,11.5,316,13.4,367.7,65.1c68.9,67,70.8,155.1,5.7,218.3c-44,46-53.6,47.9-300.6,46C2711.7-2836.6,2527.9-2844.3,2443.6-2853.8z"/><path d="M754.6-3585.4c-57.5-32.5-262.3-281.5-383-467.2c-122.6-187.6-250.8-451.9-268.1-547.7c-9.6-59.4-1.9-76.6,47.9-128.3c32.6-30.6,76.6-57.4,97.7-57.4c91.9,0,130.2,40.2,212.6,222.1c86.2,191.5,201.1,373.4,354.3,563c208.7,258.5,220.2,291.1,126.4,384.9C882.9-3556.6,823.6-3547.1,754.6-3585.4z"/><path d="M9057.7-3616c-88.1-88.1-74.7-151.3,68.9-312.1c126.4-139.8,310.2-421.3,384.9-584c38.3-82.3,78.5-168.5,88.1-189.6c21.1-46,91.9-84.3,151.3-84.3c21.1,0,65.1,26.8,97.7,57.4c49.8,51.7,57.5,68.9,47.9,128.3c-28.7,168.5-266.2,580.2-490.2,848.3C9232-3543.2,9159.2-3514.5,9057.7-3616z"/><path d="M4894.7-4508.3C4795.1-4606,4864-4786,5000-4786c76.6,0,172.3,90,172.3,162.8c0,30.6-23,72.7-55.5,107.2C5044-4445.2,4959.8-4441.3,4894.7-4508.3z"/></g></g>
</svg>