<?xml version="1.0" standalone="no"?><!DOCTYPE svg PUBLIC "-//W3C//DTD SVG 1.1//EN" "http://www.w3.org/Graphics/SVG/1.1/DTD/svg11.dtd"><svg t="1573704280922" class="icon" viewBox="0 0 1024 1024" version="1.1" xmlns="http://www.w3.org/2000/svg" p-id="2929" xmlns:xlink="http://www.w3.org/1999/xlink" width="200" height="200"><defs><style type="text/css"></style></defs><path d="M960 140.8c0-44.8-6.4-89.6-57.6-89.6-57.6 0-38.4 0-96 0 0 25.6 0 19.2 0 51.2 51.2 0 44.8 0 96 0 0 268.8 0 588.8 0 851.2-211.2 0-371.2 0-582.4 0 0-51.2 0-115.2 0-166.4-70.4 0-115.2 0-185.6 0 0-211.2 0-467.2 0-678.4 51.2 0 76.8 0 134.4 0 0-25.6 0-25.6 0-51.2-51.2 0-51.2 0-102.4 0-51.2 0-83.2 25.6-83.2 83.2 0 211.2 0 422.4 0 633.6 0 25.6 12.8 38.4 25.6 57.6C160 889.6 192 928 256 985.6c12.8 12.8 38.4 19.2 57.6 19.2 211.2 0 345.6 0 556.8 0 57.6 0 83.2-32 89.6-76.8 0-6.4 0-12.8 0-25.6 0-192 0-384 0-576C960 268.8 960 204.8 960 140.8zM787.2 454.4c-236.8 0-300.8 0-537.6 0 0 25.6 0 38.4 0 64 236.8 0 300.8 0 537.6 0C787.2 486.4 787.2 480 787.2 454.4zM249.6 332.8c0 25.6 0 19.2 0 44.8 236.8 0 300.8 0 544 0 0-19.2 0-19.2 0-32 0-25.6-6.4-32-32-32-153.6 0-422.4 0-486.4 0C268.8 313.6 249.6 320 249.6 332.8zM249.6 620.8c0 19.2 6.4 25.6 38.4 25.6 204.8 0 243.2 0 448 0 57.6 0 57.6 0 57.6-38.4 0-25.6 0-32 0-32L249.6 576C249.6 576 249.6 582.4 249.6 620.8zM537.6 185.6C563.2 185.6 576 172.8 576 147.2c0-12.8 0-32 0-44.8 0 0 0 0 0 0C576 83.2 576 64 576 51.2c0-19.2-12.8-32-32-38.4-25.6 0-38.4 12.8-38.4 32 0 32 0 70.4 0 102.4C505.6 172.8 518.4 185.6 537.6 185.6zM742.4 185.6c19.2 0 32-12.8 32-32 0-19.2 0-38.4 0-51.2 0 0 0 0 0 0 0-19.2 0-32 0-51.2 0-19.2-12.8-32-32-32-19.2 0-38.4 6.4-38.4 25.6 0 38.4 0 76.8 0 115.2C710.4 179.2 723.2 185.6 742.4 185.6zM300.8 102.4c0 19.2 0 32 0 51.2 0 25.6 12.8 32 38.4 32 19.2 0 32-12.8 32-32 0-32 0-70.4 0-102.4 0-19.2-12.8-32-38.4-32-19.2 0-32 19.2-32 38.4C300.8 64 300.8 83.2 300.8 102.4 300.8 102.4 300.8 102.4 300.8 102.4zM678.4 64c0-6.4-6.4-12.8-12.8-12.8-19.2 0-38.4 0-57.6 0 0 25.6 0 25.6 0 51.2 25.6 0 44.8 0 70.4 0C678.4 76.8 678.4 89.6 678.4 64zM473.6 51.2c-25.6 0-44.8 0-70.4 0 0 25.6 0 19.2 0 44.8 25.6 0 44.8 0 70.4 0C473.6 70.4 473.6 76.8 473.6 51.2z" p-id="2930"></path></svg>