<?xml version="1.0" standalone="no"?><!DOCTYPE svg PUBLIC "-//W3C//DTD SVG 1.1//EN" "http://www.w3.org/Graphics/SVG/1.1/DTD/svg11.dtd"><svg t="1551922785717" class="icon" style="" viewBox="0 0 1024 1024" version="1.1" xmlns="http://www.w3.org/2000/svg" p-id="1713" xmlns:xlink="http://www.w3.org/1999/xlink" width="200" height="200"><defs><style type="text/css"></style></defs><path d="M525.655 798.010h-361.958l239.493-239.498 12.242 12.242c19.338 19.338 45.056 29.988 72.407 29.988s53.064-10.65 72.412-29.988l282.609-282.614v150.467c0 25.452 20.628 46.080 46.080 46.080s46.080-20.628 46.080-46.080v-188.964c0-56.96-45.501-103.296-101.432-103.296h-701.44c-55.926 0-101.427 46.341-101.427 103.296v537.231c0 56.955 45.501 103.296 101.432 103.296h393.503c25.452 0 46.080-20.628 46.080-46.080s-20.628-46.080-46.080-46.080zM122.88 708.492v-430.295l215.148 215.148-215.148 215.148zM495.084 505.591c-3.994 3.988-10.491 3.988-14.484 0l-267.080-267.085h548.644l-267.080 267.085z" p-id="1714"></path><path d="M975.969 667.573l-124.718-134.554c-17.3-18.668-46.454-19.768-65.121-2.468s-19.768 46.454-2.468 65.121l67.697 73.032h-231.839c-23.567 0-42.665 19.098-42.665 42.665s19.098 42.665 42.665 42.665h236.826l-81.551 75.592c-18.668 17.3-19.768 46.454-2.468 65.121 9.078 9.795 21.427 14.756 33.807 14.756 11.208 0 22.446-4.065 31.314-12.283l134.538-124.708c14.551-13.481 22.979-31.821 23.731-51.64 0.748-19.83-6.267-38.753-19.748-53.299z" p-id="1715"></path></svg>