<?xml version="1.0" standalone="no"?><!DOCTYPE svg PUBLIC "-//W3C//DTD SVG 1.1//EN" "http://www.w3.org/Graphics/SVG/1.1/DTD/svg11.dtd"><svg t="1552617714875" class="icon" style="" viewBox="0 0 1024 1024" version="1.1" xmlns="http://www.w3.org/2000/svg" p-id="1222" xmlns:xlink="http://www.w3.org/1999/xlink" width="200" height="200"><defs><style type="text/css"></style></defs><path d="M996.693333 923.306667l-81.92-73.386667c32.426667-37.546667 51.2-85.333333 51.2-136.533333 0-44.373333-13.653333-85.333333-37.546666-119.466667v-256c0-27.306667-13.653333-52.906667-35.84-69.973333-15.36-11.946667-34.133333-17.066667-52.906667-17.066667H170.666667c-18.773333 0-37.546667 6.826667-52.906667 17.066667-22.186667 17.066667-35.84 42.666667-35.84 69.973333v416.426667c0 23.893333 8.533333 46.08 25.6 61.44 17.066667 17.066667 37.546667 25.6 61.44 25.6h419.84c5.12 6.826667 10.24 13.653333 17.066667 18.773333C648.533333 899.413333 699.733333 921.6 756.053333 921.6c49.493333 0 95.573333-17.066667 133.12-47.786667l83.626667 75.093334c3.413333 3.413333 6.826667 5.12 11.946667 5.12 5.12 0 8.533333-1.706667 11.946666-5.12 8.533333-8.533333 6.826667-20.48 0-25.6zM884.053333 546.133333c-3.413333-1.706667-6.826667-5.12-8.533333-6.826666-1.706667-1.706667-5.12-3.413333-6.826667-5.12-3.413333-1.706667-6.826667-3.413333-8.533333-5.12-3.413333-1.706667-5.12-3.413333-8.533333-5.12-3.413333-1.706667-6.826667-3.413333-8.533334-5.12-3.413333-1.706667-5.12-3.413333-8.533333-3.413334-3.413333-1.706667-5.12-1.706667-8.533333-3.413333s-6.826667-1.706667-10.24-3.413333c-3.413333 0-5.12-1.706667-8.533334-1.706667-3.413333-1.706667-6.826667-1.706667-10.24-1.706667-1.706667 0-3.413333 0-6.826666-1.706666-10.24-1.706667-22.186667-3.413333-32.426667-3.413334-11.946667 0-22.186667 1.706667-32.426667 3.413334h-1.706666c-5.12 1.706667-10.24 1.706667-15.36 3.413333-27.306667 6.826667-54.613333 20.48-76.8 37.546667l-5.12-5.12-5.12-5.12 264.533333-235.52c6.826667 8.533333 11.946667 20.48 11.946667 32.426666v218.453334s-1.706667-1.706667-3.413334-1.706667c-5.12 1.706667-6.826667 0-10.24-1.706667zM170.666667 283.306667h669.013333c3.413333 0 8.533333 0 11.946667 1.706666l-346.453334 307.2L160.426667 283.306667h10.24z m-46.08 494.933333c-3.413333-6.826667-6.826667-15.36-6.826667-25.6V336.213333c0-11.946667 3.413333-23.893333 11.946667-32.426666l264.533333 235.52-20.48 18.773333L124.586667 778.24z m46.08 29.013333c-6.826667 0-15.36-1.706667-22.186667-5.12l269.653333-240.64 75.093334 66.56c6.826667 5.12 17.066667 5.12 22.186666 0l75.093334-66.56 8.533333 8.533334 1.706667 1.706666c-1.706667 1.706667-3.413333 3.413333-5.12 6.826667-1.706667 1.706667-3.413333 3.413333-3.413334 5.12-3.413333 5.12-6.826667 10.24-10.24 13.653333l-1.706666 1.706667c-3.413333 5.12-5.12 8.533333-8.533334 13.653333-1.706667 1.706667-1.706667 3.413333-3.413333 5.12-1.706667 3.413333-3.413333 8.533333-5.12 11.946667 0 1.706667-1.706667 3.413333-1.706667 5.12l-5.12 15.36v1.706667c-1.706667 6.826667-3.413333 11.946667-5.12 18.773333-1.706667 6.826667-1.706667 11.946667-3.413333 18.773333v1.706667c-1.706667 13.653333-1.706667 27.306667 0 40.96v1.706667c0 5.12 1.706667 10.24 1.706667 15.36 0 1.706667 1.706667 5.12 1.706666 6.826666 0 3.413333 1.706667 6.826667 1.706667 8.533334 1.706667 3.413333 1.706667 6.826667 3.413333 10.24v1.706666c3.413333 10.24 6.826667 18.773333 11.946667 27.306667H170.666667zM633.173333 836.266667c-6.826667-6.826667-13.653333-13.653333-18.773333-22.186667-8.533333-13.653333-17.066667-27.306667-22.186667-40.96v-1.706667c-1.706667-3.413333-3.413333-8.533333-3.413333-11.946666 0-1.706667-1.706667-3.413333-1.706667-5.12 0-3.413333-1.706667-6.826667-1.706666-8.533334 0-3.413333-1.706667-6.826667-1.706667-11.946666v-3.413334-17.066666-17.066667-1.706667c0-5.12 1.706667-10.24 1.706667-15.36 0-1.706667 0-3.413333 1.706666-3.413333 0-3.413333 1.706667-6.826667 3.413334-11.946667 0-1.706667 1.706667-3.413333 1.706666-5.12 1.706667-3.413333 1.706667-6.826667 3.413334-10.24 0-1.706667 1.706667-3.413333 1.706666-6.826666 1.706667-3.413333 3.413333-5.12 3.413334-8.533334 1.706667-1.706667 1.706667-3.413333 3.413333-6.826666s3.413333-5.12 5.12-8.533334c1.706667-1.706667 1.706667-3.413333 3.413333-5.12 1.706667-3.413333 3.413333-5.12 6.826667-8.533333 1.706667-1.706667 1.706667-3.413333 3.413333-5.12 3.413333-3.413333 6.826667-8.533333 11.946667-11.946667l3.413333-3.413333 3.413334-1.706667c32.426667-29.013333 73.386667-46.08 117.76-46.08 46.08 0 90.453333 18.773333 122.88 51.2 3.413333 3.413333 6.826667 6.826667 8.533333 10.24 1.706667 3.413333 5.12 6.826667 8.533333 10.24 22.186667 30.72 34.133333 66.56 34.133334 104.106667 0 46.08-18.773333 90.453333-51.2 124.586667s-76.8 51.2-124.586667 51.2-92.16-18.773333-124.586667-51.2z" p-id="1223"></path></svg>