<?xml version="1.0" standalone="no"?><!DOCTYPE svg PUBLIC "-//W3C//DTD SVG 1.1//EN" "http://www.w3.org/Graphics/SVG/1.1/DTD/svg11.dtd"><svg t="1573704643832" class="icon" viewBox="0 0 1024 1024" version="1.1" xmlns="http://www.w3.org/2000/svg" p-id="6838" xmlns:xlink="http://www.w3.org/1999/xlink" width="200" height="200"><defs><style type="text/css"></style></defs><path d="M763.888867 238.485603 150.954037 238.485603c-19.912515 0-36.055171 16.142655-36.055171 36.055171L114.898867 707.199751l0 0.001023c0 19.912515 16.142655 36.054147 36.055171 36.054147l180.27483 0c19.912515 0 36.055171-16.141632 36.055171-36.054147l0-0.001023c0-19.912515-16.142655-36.055171-36.055171-36.055171L187.009208 671.14458 187.009208 310.594921l540.824489 0 0 360.549659L475.449549 671.14458c-0.350994 0-0.675382 0.093121-1.023306 0.103354-8.81476 0.155543-17.59575 3.427052-24.431435 10.04068l-155.470911 150.422941c-14.31196 13.846356-14.688537 36.671201-0.842181 50.983161 13.846356 14.310937 36.672224 14.686491 50.983161 0.840134l144.988162-140.280954 274.235828 0c19.912515 0 36.055171-16.141632 36.055171-36.054147l0-0.001023L799.944038 274.540773C799.944038 254.628258 783.801383 238.485603 763.888867 238.485603z" p-id="6839"></path><path d="M873.04494 130.320091c-0.169869 0-0.325411 0.047072-0.49528 0.049119-0.169869-0.002047-0.326435-0.049119-0.496304-0.049119L295.17472 130.320091c-19.912515 0-36.055171 16.142655-36.055171 36.055171 0 19.913539 16.142655 36.055171 36.055171 36.055171l541.816073 0 0 360.550683c0 19.912515 16.142655 36.054147 36.055171 36.054147s36.055171-16.141632 36.055171-36.054147L909.101133 166.375262C909.10011 146.462746 892.957455 130.320091 873.04494 130.320091z" p-id="6840"></path></svg>