<?xml version="1.0" standalone="no"?><!DOCTYPE svg PUBLIC "-//W3C//DTD SVG 1.1//EN" "http://www.w3.org/Graphics/SVG/1.1/DTD/svg11.dtd"><svg t="1553671347167" class="icon" style="" viewBox="0 0 1024 1024" version="1.1" xmlns="http://www.w3.org/2000/svg" p-id="4242" xmlns:xlink="http://www.w3.org/1999/xlink" width="200" height="200"><defs><style type="text/css"></style></defs><path d="M880.384 795.008C928.448 760.128 960 703.936 960 640c0-106.048-85.952-192-192-192-106.048 0-192 85.952-192 192 0 63.936 31.552 120.128 79.616 155.008C570.816 836.736 512 923.136 512 1024l512 0C1024 923.136 965.184 836.736 880.384 795.008zM640 640c0-70.592 57.408-128 128-128s128 57.408 128 128-57.408 128-128 128S640 710.592 640 640zM768 832c83.456 0 154.624 53.504 181.056 128L586.944 960C613.376 885.504 684.544 832 768 832zM384 192c0-35.328-28.672-64-64-64L192 128C156.672 128 128 156.672 128 192l0 192c0 35.328 28.672 64 64 64l128 0c35.328 0 64-28.672 64-64L384 192zM320 384 192 384 192 192l128 0L320 384zM191.488 512C156.416 512 128 540.416 128 575.488l0 193.024C128 803.584 156.416 832 191.488 832l129.024 0C355.584 832 384 803.584 384 768.512L384 575.488C384 540.416 355.584 512 320.512 512L191.488 512zM192 768.832 191.488 576 320 576l0.512 192.64L192 768.832zM768 384 768 206.336C768 198.4 761.6 192 753.664 192L526.336 192C518.4 192 512 198.4 512 206.336L512 640l0 113.664C512 761.6 518.4 768 526.336 768l21.248 0c3.136 5.376 5.888 11.072 9.472 16.192-15.808 13.76-29.952 29.056-42.56 45.376C477.056 823.68 448 792.704 448 753.664L448 206.336C448 163.072 483.072 128 526.336 128l227.328 0C796.928 128 832 163.072 832 206.336l0 186.752C811.392 387.712 790.208 384 768 384zM64 896l410.944 0c-8.96 20.416-15.808 41.856-20.288 64L64 960c-35.328 0-64-28.672-64-64L0 64c0-35.328 28.672-64 64-64l832 0c35.328 0 64 28.672 64 64l0 408.448c-18.304-20.992-39.808-38.72-64-52.864L896 64 64 64 64 896z" p-id="4243"></path></svg>