<?xml version="1.0" standalone="no"?><!DOCTYPE svg PUBLIC "-//W3C//DTD SVG 1.1//EN" "http://www.w3.org/Graphics/SVG/1.1/DTD/svg11.dtd"><svg t="1552617671771" class="icon" style="" viewBox="0 0 1024 1024" version="1.1" xmlns="http://www.w3.org/2000/svg" p-id="1097" xmlns:xlink="http://www.w3.org/1999/xlink" width="200" height="200"><defs><style type="text/css"></style></defs><path d="M878.815725 791.488073a31.93599 31.93599 0 0 0-32.03199 31.87199v84.447973c0 15.935995-13.599996 27.871991-21.695993 33.53599-17.119995 12.031996-41.215987 18.911994-66.207979 18.911994h-0.128L152.159952 959.68002a88.127972 88.127972 0 0 1-88.127972-87.807972V151.328273c0-23.295993 9.183997-45.247986 25.887992-61.855981a87.423973 87.423973 0 0 1 62.079981-25.727992h0.063999l606.559811 0.576c47.775985 0.032 88.127972 32.28799 88.127972 70.399978v102.175968c0 17.599995 14.335996 31.87199 32.03199 31.87199a31.93599 31.93599 0 0 0 32.03199-31.87199V134.752278c0-73.887977-68.255979-134.111958-152.095952-134.175958L152.159952 0.00032h-0.128a151.263953 151.263953 0 0 0-107.359966 44.383986A149.919953 149.919953 0 0 0 0 151.328273v720.543775c0 83.519974 68.223979 151.487953 152.095952 151.551952L758.655763 1024h0.192c38.431988 0 75.071977-10.847997 103.135968-30.52799 31.07199-21.791993 48.863985-53.023983 48.863984-85.663974V823.360063a31.93599 31.93599 0 0 0-32.03199-31.87199z" p-id="1098"></path><path d="M1014.655683 505.344162l-192.38394-192.15994a32.09599 32.09599 0 0 0-45.279986-0.064 31.77599 31.77599 0 0 0-0.064 45.087986l136.863957 136.703957-629.023803 0.672c-17.695994 0-31.99999 14.303996-31.99999 31.90399s14.367996 31.87199 32.03199 31.87199h0.032l630.783803-0.672-137.887957 137.023958a31.93599 31.93599 0 1 0 22.623993 54.463983 31.99999 31.99999 0 0 0 22.623993-9.311998l191.64794-190.39994a31.87199 31.87199 0 0 0 0.032-45.119986z" p-id="1099"></path></svg>