<?xml version="1.0" standalone="no"?><!DOCTYPE svg PUBLIC "-//W3C//DTD SVG 1.1//EN" "http://www.w3.org/Graphics/SVG/1.1/DTD/svg11.dtd"><svg t="1552616862039" class="icon" style="" viewBox="0 0 1024 1024" version="1.1" xmlns="http://www.w3.org/2000/svg" p-id="1096" xmlns:xlink="http://www.w3.org/1999/xlink" width="200" height="200"><defs><style type="text/css"></style></defs><path d="M530.37 68.72a35.911 35.911 0 0 0-37.952 4.243c-0.518 0.418-53.112 42.223-111.202 85.02-101.043 74.442-130.457 86.837-136.424 88.808h-143.12c-0.725 0-1.42 0.097-2.14 0.111H34.899c-16.293 0-29.501 13.21-29.501 29.505v471.058c0 16.296 13.208 29.507 29.5 29.507l233.315 0.009c5.878 2.139 33.639 14.982 123.294 88.11 52.151 42.534 98.959 84.055 99.424 84.466a35.892 35.892 0 0 0 23.848 9.059c4.974 0 9.989-1.038 14.707-3.16a35.905 35.905 0 0 0 21.183-32.755V101.064a35.897 35.897 0 0 0-20.299-32.345m-49.395 778.369c-15.104-12.76-31.94-26.773-49.173-40.732-113.682-92.1-141.81-99.804-160.87-99.804-0.376 0-0.726 0.1-1.1 0.11-0.373-0.01-0.726-0.11-1.102-0.11H98.597c-19.637 0-24.18-5.547-24.18-25.266V337.903c0-13.357 1.58-21.758 17.714-21.758h154.857c18.561 0 47.078-7.621 171.437-98.731 22.17-16.238 43.818-32.557 62.552-46.874v676.547h-0.002z m363.743-335.36c0-91.495-49.62-171.31-123.344-214.272-3.347-1.772-11.234-5.192-16.73-5.192-16.372 0-29.647 13.278-29.647 29.654 0 10.99 5.856 20.793 14.732 25.916 57.005 32.396 95.482 93.634 95.482 163.896 0 71.497-39.815 133.69-98.48 165.617-8.534 5.206-14.196 14.675-14.196 25.409 0 16.376 13.275 29.655 29.647 29.655 6.958 0.06 15.198-4.041 15.198-4.041 75.945-42.373 127.338-123.487 127.338-216.641M810.492 146.67c-5.506-3.298-11-5.988-17.647-5.988-16.29 0-29.5 13.211-29.5 29.506 0 11.743 6.978 21.189 16.841 26.545C888.482 259.936 961.32 377.275 961.32 511.728c0 134.365-72.75 251.63-180.925 314.864-9.49 5.151-17.665 14.917-17.665 26.995 0 16.295 13.208 29.507 29.501 29.507 6.541 0 11.76-2.517 17.42-5.804 125.668-73.355 210.194-209.526 210.194-365.56 0.002-155.684-84.15-291.592-209.353-365.06" p-id="1097"></path></svg>