<?xml version="1.0" encoding="utf-8"?>
<!-- Svg Vector Icons : http://www.sfont.cn -->
<!DOCTYPE svg PUBLIC "-//W3C//DTD SVG 1.1//EN" "http://www.w3.org/Graphics/SVG/1.1/DTD/svg11.dtd">
<svg version="1.1" xmlns="http://www.w3.org/2000/svg" xmlns:xlink="http://www.w3.org/1999/xlink" x="0px" y="0px" viewBox="0 0 1000 1000" enable-background="new 0 0 1000 1000" xml:space="preserve">
<metadata> Svg Vector Icons : http://www.sfont.cn </metadata>
<g><path d="M173.3,445.6V336.7h-54.4v108.9H173.3z M282.2,227.8H10v54.4h272.2V227.8z M173.3,717.8V608.9h-54.4v108.9H173.3z M881.1,10H227.8c-60.1,0-108.9,48.8-108.9,108.9v54.4h54.4c0-60.1,48.8-108.9,108.9-108.9h54.4v871.1h-54.4c-60.1,0-108.9-48.8-108.9-108.9h108.9v-54.4H10v54.4h108.9v54.4c0,60.1,48.8,108.9,108.9,108.9h653.3c60.1,0,108.9-48.8,108.9-108.9V118.9C990,58.8,941.2,10,881.1,10z M935.6,826.7c0,16.5-3.7,32.2-10.3,46.2L781.6,704.8c28.1-33.2,45.1-76.2,45.1-123.1c0-105.2-85.3-190.6-190.6-190.6c-105.2,0-190.6,85.3-190.6,190.6c0,105.2,85.3,190.6,190.6,190.6c38.7,0,74.6-11.5,104.7-31.3l149.1,174.4c-17.8,12.7-39.6,20.2-63.2,20.2H391.1V64.4h435.6c60.1,0,108.9,48.8,108.9,108.9V826.7z M772.2,581.7c0,75.2-60.9,136.1-136.1,136.1S500,656.8,500,581.7c0-75.2,60.9-136.1,136.1-136.1S772.2,506.5,772.2,581.7z M282.2,500H10v54.4h272.2V500z"/></g>
</svg>