<?xml version="1.0" encoding="utf-8"?>
<!-- Svg Vector Icons : http://www.sfont.cn -->
<!DOCTYPE svg PUBLIC "-//W3C//DTD SVG 1.1//EN" "http://www.w3.org/Graphics/SVG/1.1/DTD/svg11.dtd">
<svg version="1.1" xmlns="http://www.w3.org/2000/svg" xmlns:xlink="http://www.w3.org/1999/xlink" x="0px" y="0px" viewBox="0 0 1000 1000" enable-background="new 0 0 1000 1000" xml:space="preserve">
<metadata> Svg Vector Icons : http://www.sfont.cn </metadata>
<g><path d="M175.7,313.1v-49.6h561.2v49.6H571.7L175.7,313.1L175.7,313.1z M175.2,709.6h198.2v49.6H175.2V709.6L175.2,709.6z M175.7,487.8h217.8v49.6H175.7V487.8z M836,114.9c0-18.2-14.8-33-33-33H109.1c-18.2,0-33,14.8-33,33v759.9c0,18.3,14.8,33,33,33h322.6c16.7,24.6,36.7,46.7,59.1,66.1H84.3C43.3,974,10,940.7,10,899.6V90.1c0-41.1,33.3-74.3,74.3-74.3h743.4c41.1,0,74.3,33.3,74.3,74.3v347.4c-20.5-13.9-42.7-25.4-66.1-34.6L836,114.9L836,114.9L836,114.9z M615.9,593.1c20.9,20.9,42,42,63.6,63.6c-29.4,0-58.2,0-87.2,0c0,10.3,0,20.3,0,30.7c36.8,0,73.2,0,110.1,0c0,2,0,3.5,0,5c0,16.3,0,32.6,0,49c0,5.5,0,5.5-5.4,5.5c-33.2,0-66.4,0-99.6,0c-1.7,0-3.5,0-5.2,0c0,10.6,0,20.4,0,30.8c36.8,0,73.2,0,110.2,0c0,2.2,0,3.8,0,5.4c0,30,0.1,60-0.1,90c0,4.1,1.2,5.2,5.2,5c6.5-0.3,13.1-0.1,19.7-0.1c6,0,6,0,6-5.8c0-29.9,0-59.7,0-89.6c0-1.6,0-3.2,0-5.1c2.3,0,4,0,5.6,0c32.9,0,65.8,0,98.8,0c1.3,0,2.6,0.3,3.7-0.1c0.9-0.3,2.2-1.4,2.2-2.2c0.2-9.3,0.1-18.6,0.1-28.6c-37,0-73.6,0-110.2,0c0-20.1,0-39.6,0-59.5c1.9,0,3.5,0,5.2,0c25.7,0,51.3,0,77,0c8.1,0,16.2-0.1,24.3,0.1c2.9,0.1,3.9-0.8,3.8-3.8c-0.2-7.8,0-15.6-0.1-23.4c0-1.1-0.2-2.1-0.4-3.6c-29.1,0-57.9,0-88,0c22-22,43.2-43,63.8-63.7c-7.6-7.6-14.7-14.7-22.3-22.3c-26.1,26.1-52.4,52.5-79.5,79.5c-26.6-26.7-53-53.1-79-79.2C631,578.1,623.8,585.2,615.9,593.1z M990,714.9c0,148.7-120.6,269.3-269.3,269.3c-148.7,0-269.3-120.6-269.3-269.3c0-148.7,120.6-269.3,269.3-269.3C869.4,445.6,990,566.2,990,714.9z"/></g>
</svg>