<?xml version="1.0" encoding="utf-8"?>
<!-- Svg Vector Icons : http://www.sfont.cn -->
<!DOCTYPE svg PUBLIC "-//W3C//DTD SVG 1.1//EN" "http://www.w3.org/Graphics/SVG/1.1/DTD/svg11.dtd">
<svg version="1.1" xmlns="http://www.w3.org/2000/svg" xmlns:xlink="http://www.w3.org/1999/xlink" x="0px" y="0px" viewBox="0 0 1000 1000" enable-background="new 0 0 1000 1000" xml:space="preserve">
<metadata> Svg Vector Icons : http://www.sfont.cn </metadata>
<g><path d="M790.8,54.4c43.1,0,78,34.8,78,77.8v381.1l7.5-18.2L433.8,943.5l18.6-7.7H140c-43.1,0-78-34.7-78-77.5V28.5L36,54.4H790.8L790.8,54.4z M10,2.6v25.9v829.7c0,71.5,58.2,129.4,130,129.4h312.4h10.9l7.7-7.8l442.4-448.4l7.5-7.5v-10.6V132.2c0-71.5-58.2-129.6-130-129.6H36H10L10,2.6z M828.3,679.8l-12.5,12.5l12.5,12.5l70.9,70.6l12.5,12.5l12.5-12.5l53.2-53L990,710l-12.5-12.5l-70.9-70.7L894,614.3l-12.5,12.5L828.3,679.8L828.3,679.8z M881.5,651.8l70.9,70.6v-25l-53.2,53h25.1l-70.9-70.7v25l53.2-53H881.5L881.5,651.8z M633.2,874.1l-3.8,3.8l-1,5.3l-17.7,88.3l-5.2,26l26.1-5.2l88.7-17.7l5.3-1l3.8-3.8l195-194.3l12.5-12.5l-12.5-12.5l-70.9-70.7l-12.5-12.5l-12.5,12.5L633.2,874.1L633.2,874.1z M828.3,704.8l70.9,70.6v-25l-195,194.3l9.1-4.8l-88.7,17.7l20.9,20.8l17.7-88.3l-4.9,9l195.1-194.3L828.3,704.8L828.3,704.8z M461.4,668.3c19.6,0,35.5,15.8,35.5,35.4v9.4c0,19.5-15.8,35.4-35.5,35.4l0,0c-19.6,0-35.6-15.8-35.6-35.4v-9.4C425.8,684.2,441.6,668.3,461.4,668.3L461.4,668.3L461.4,668.3z M296.3,385.3c0,0,2.8,24.4,30.2,24.4s29-24.4,29-24.4c-1.8-79.2,35-116.8,110.4-113c50.2,5.6,76.2,33.8,77.9,84.7c-3.5,22.7-22.5,52-56.4,87.7c-44.9,45.2-67.3,85.7-67.3,121.5v36.7c0,0,3.4,21.9,28.3,21.9c24.8,0,28.3-21.9,28.3-21.9v-25.5c0-29.9,21.5-65.8,64.6-107.4c45-41.3,67.4-79.1,67.4-113c-3.7-94.1-52.9-143.1-148.1-146.9C351,208.2,296.3,266.6,296.3,385.3L296.3,385.3z"/></g>
</svg>