<?xml version="1.0" standalone="no"?><!DOCTYPE svg PUBLIC "-//W3C//DTD SVG 1.1//EN" "http://www.w3.org/Graphics/SVG/1.1/DTD/svg11.dtd"><svg t="1574321669457" class="icon" viewBox="0 0 1024 1024" version="1.1" xmlns="http://www.w3.org/2000/svg" p-id="10458" xmlns:xlink="http://www.w3.org/1999/xlink" width="200" height="200"><defs><style type="text/css"></style></defs><path d="M512.005117 1017.156128c-278.550087 0-505.160221-226.610134-505.160221-505.156128S233.455029 6.843872 512.005117 6.843872c278.540877 0 505.151012 226.610134 505.151012 505.156128S790.545994 1017.156128 512.005117 1017.156128zM512.005117 51.947116c-253.67249 0-460.056977 206.379371-460.056977 460.051861s206.384487 460.051861 460.056977 460.051861 460.047768-206.379371 460.047768-460.051861S765.677607 51.947116 512.005117 51.947116z" p-id="10459"></path><path d="M597.401042 404.445402c0-21.609157-8.196683-39.249933-24.578792-52.91721-16.387225-13.666254-37.372166-20.499893-62.951751-20.499893-27.065426 0-47.783283 8.300037-62.157665 24.894993-14.380522 16.601096-22.309098 41.386596-23.785729 74.368778l-55.497988 0c0-47.778166 12.527314-84.724637 37.58092-110.838388 25.053606-26.109658 60.518329-39.164998 106.399285-39.164998 43.339064 0 78.277808 10.836813 104.813161 32.506345 26.530236 21.674649 39.800471 50.265824 39.800471 85.784782 0 35.311227-13.319353 63.85226-39.959084 85.626169-5.073552 4.232394-10.573823 8.037047-16.490579 11.417027 10.990309 4.865821 20.717857 10.679223 29.176506 17.442254 28.54308 22.412452 42.813085 52.643987 42.813085 90.700745 0 42.708707-14.801101 77.648474-44.398186 104.813161-29.603225 27.169803-67.658959 40.752146-114.168226 40.752146-51.16838 0-89.74907-12.31856-115.754351-36.94647-26.00528-24.626887-40.171931-62.316278-42.49586-113.057939l59.621912 0c3.390213 35.518958 12.809747 60.945047 28.269857 76.271104 15.459087 15.331173 39.493479 22.992667 72.108295 22.992667 28.161387 0 51.242058-8.087189 69.244061-24.261567 17.997909-16.173354 27.001981-36.945447 27.001981-62.316278 0-26.638707-8.67252-47.777143-26.00528-63.426565-14.801101-13.528108-33.82948-21.138436-57.084113-22.833031-10.782577-0.629333-20.985964-0.946558-30.602995-0.946558-9.623171 0-16.014742 0.421602-19.186991 1.263783l0-49.789986c4.647857 1.049912 11.837606 1.574868 21.565155 1.574868 9.722432 0 19.34458-0.62831 28.859281-1.893116 18.393929-2.328022 33.299407-8.369621 44.715411-18.11559C589.680197 445.13308 597.401042 427.333692 597.401042 404.445402z" p-id="10460"></path></svg>