<?xml version="1.0" standalone="no"?><!DOCTYPE svg PUBLIC "-//W3C//DTD SVG 1.1//EN" "http://www.w3.org/Graphics/SVG/1.1/DTD/svg11.dtd"><svg t="1574321640101" class="icon" viewBox="0 0 1024 1024" version="1.1" xmlns="http://www.w3.org/2000/svg" p-id="9035" xmlns:xlink="http://www.w3.org/1999/xlink" width="200" height="200"><defs><style type="text/css"></style></defs><path d="M504.353813 16.445242c-278.222926 0-503.766303 225.544384-503.766303 503.766303s225.544384 503.76731 503.766303 503.76731 503.766303-225.544384 503.766303-503.76731S782.576739 16.445242 504.353813 16.445242zM686.329835 730.61358l0 67.951784L293.376854 798.565365c2.644046-49.25719 12.852722-92.181154 30.562596-128.709467 17.71088-36.466894 52.332177-69.643329 103.74206-99.499101l76.745805-44.368826c34.37562-19.985404 58.482152-37.050879 72.318588-51.194412 21.89242-22.16931 32.838127-47.535439 32.838127-76.1004 0-33.391906-10.023412-59.865594-30.009823-79.51269-19.985404-19.616889-46.613144-29.425837-79.943631-29.425837-49.318609 0-83.387133 18.7248-102.327405 56.113989-10.14625 20.04783-15.742445 47.843542-16.788585 83.387133l-73.117038 0c0.738037-49.841176 9.961993-90.459403 27.550034-121.914087 31.177795-55.437371 86.216444-83.141457 165.052516-83.141457 65.553415 0 113.458376 17.71088 143.713875 53.162847 30.2555 35.451967 45.383753 74.870002 45.383753 118.316533 0 45.8449-16.111967 85.017259-48.396314 117.517077-18.633175 18.910065-52.086501 41.847618-100.298557 68.751241l-54.791966 30.348132c-26.07396 14.390216-46.613144 28.102807-61.494713 41.201206-26.689159 23.18323-43.476737 48.888675-50.426168 77.11432L686.329835 730.611567z" p-id="9036"></path></svg>